<svg xmlns="http://www.w3.org/2000/svg" fill="none" viewBox="0 0 32 24"><g clip-path="url(#CN_svg__a)"><path fill="#fff" d="M0 0H32V24H0z"/><path fill="#E31D1C" fill-rule="evenodd" d="M0 0H32V24H0V0Z" clip-rule="evenodd"/><path fill="#FECA00" fill-rule="evenodd" d="M15.0157 4.54832 14.0056 5.15815 14.236 3.96812 13.3948 3.0775 14.5338 3.02935 15.0157 1.91815 15.4977 3.02935H16.6348L15.7955 3.96812 16.0482 5.15815 15.0157 4.54832zM7.01754 9.60722 4.1367 11.1582 4.7938 8.13166 2.39478 5.86662 5.6432 5.74415 7.01754 2.91815 8.39188 5.74415H11.6348L9.24127 8.13166 9.96186 11.1582 7.01754 9.60722zM17.0157 8.54832 16.0056 9.15815 16.236 7.96812 15.3948 7.0775 16.5338 7.02935 17.0157 5.91815 17.4977 7.02935H18.6348L17.7955 7.96812 18.0482 9.15815 17.0157 8.54832zM16.0157 12.5483 15.0056 13.1582 15.236 11.9681 14.3948 11.0775 15.5338 11.0293 16.0157 9.91815 16.4977 11.0293H17.6348L16.7955 11.9681 17.0482 13.1582 16.0157 12.5483zM13.0157 15.5483 12.0056 16.1582 12.236 14.9681 11.3948 14.0775 12.5338 14.0293 13.0157 12.9182 13.4977 14.0293H14.6348L13.7955 14.9681 14.0482 16.1582 13.0157 15.5483z" clip-rule="evenodd"/></g><defs><clipPath id="CN_svg__a"><path fill="#fff" d="M0 0H32V24H0z"/></clipPath></defs></svg>