<svg xmlns="http://www.w3.org/2000/svg" fill="none" viewBox="0 0 32 24"><g clip-path="url(#EG_svg__a)"><path fill="#fff" d="M0 0H32V24H0z"/><path fill="#F7FCFF" fill-rule="evenodd" d="M0 0V24H32V0H0Z" clip-rule="evenodd"/><mask id="EG_svg__b" width="32" height="24" x="0" y="0" maskUnits="userSpaceOnUse" style="mask-type:luminance"><path fill="#fff" fill-rule="evenodd" d="M0 0V24H32V0H0Z" clip-rule="evenodd"/></mask><g mask="url(#EG_svg__b)"><path fill="#BF2714" fill-rule="evenodd" d="M0 0V8H32V0H0Z" clip-rule="evenodd"/><path fill="#272727" fill-rule="evenodd" d="M0 16V24H32V16H0Z" clip-rule="evenodd"/><path fill="#C09302" d="M12.2603 10.2202 13.2592 10.266 13.0085 15.7358 12.0095 15.69 12.2603 10.2202zM13.304 10.5598 14.3024 10.6162 14.0516 15.0515 13.0532 14.9951 13.304 10.5598z"/><path fill="#C09302" d="M14.3484 10.8919 15.3451 10.9737 15.0943 14.0297 14.0977 13.9479 14.3484 10.8919zM19.7396 10.2202 18.7407 10.266 18.9914 15.7358 19.9904 15.69 19.7396 10.2202zM18.6959 10.5598 17.6975 10.6162 17.9482 15.0515 18.9467 14.9951 18.6959 10.5598z"/><path fill="#C09302" d="M17.6515 10.8919 16.6548 10.9737 16.9056 14.0297 17.9022 13.9479 17.6515 10.8919zM15.9733 15.3267 14.9985 15.1034 15.4111 13.3027 16.3859 13.526 15.9733 15.3267z"/><path fill="#C09302" d="M16.7195 15.3267L17.6942 15.1034L17.2816 13.3027L16.3069 13.526L16.7195 15.3267Z"/><path fill="#C09302" d="M16.4722 15.3102H15.4722V13.5423H16.4722V15.3102zM14.6347 10.9133 15.6344 10.9378 15.576 13.3187 14.5763 13.2942 14.6347 10.9133zM16.3738 10.9133 17.3735 10.9378 17.3151 13.3187 16.3154 13.2942 16.3738 10.9133z"/><path fill="#C09302" d="M13.3379 15.9228 13.5976 14.9572C14.6586 15.2425 15.4734 15.3836 16.0289 15.3836 16.5845 15.3836 17.3992 15.2425 18.4602 14.9572L18.7199 15.9228C17.5815 16.229 16.6888 16.3836 16.0289 16.3836 15.369 16.3836 14.4763 16.229 13.3379 15.9228zM12.2822 10.2227C12.2155 9.56211 12.6022 9.11493 13.2574 9.17197 13.4729 9.19072 13.7149 9.25446 14.0372 9.36381 14.1314 9.39612 14.1314 9.39612 14.2229 9.42852 14.666 9.58612 14.7863 9.62663 14.8113 9.63196 14.7131 9.60973 15.0023 9.08696 15.0686 8.99884 15.0764 9.0548 15.0432 9.04683 14.9632 9.03084L14.0612 8.85031 14.7033 8.19155C14.9277 7.96129 15.2266 7.84711 15.5677 7.84711 15.6031 7.84711 15.6361 7.84547 15.7444 7.8388 15.8246 7.83393 15.8246 7.83393 15.9147 7.8302 16.5386 7.80998 16.9861 7.98642 16.9861 8.62808 16.9861 8.85763 17.0151 9.22678 17.063 9.50683 17.0791 9.60104 17.1101 9.68922 17.0184 9.72795 17.0222 9.69453 17.2408 9.60828 17.5806 9.46616L17.6214 9.44911C18.6088 9.03696 18.7242 8.99873 19.0425 9.19217 19.2546 9.32108 19.4566 9.55295 19.6829 9.89867L18.8462 10.4464C18.7003 10.2234 18.584 10.0881 18.5287 10.0503 18.6545 10.1377 18.2308 10.2784 18.0066 10.3719L17.9664 10.3887C17.1977 10.7102 17.0963 10.7486 16.8765 10.7486 16.2783 10.7486 16.0635 10.1358 16.0047 9.25829 15.8201 9.86586 15.2695 10.6326 14.8157 10.6326 14.617 10.6326 14.7125 10.664 13.8878 10.3707 13.8014 10.3401 13.8014 10.3401 13.7159 10.3108 13.4661 10.226 13.2858 10.1785 13.1721 10.1683 13.1768 10.163 13.1935 10.1449 13.2123 10.1289L12.2822 10.2227z"/></g></g><defs><clipPath id="EG_svg__a"><path fill="#fff" d="M0 0H32V24H0z"/></clipPath></defs></svg>