<svg xmlns="http://www.w3.org/2000/svg" fill="none" viewBox="0 0 32 24"><g clip-path="url(#KE_svg__a)"><path fill="#fff" d="M0 0H32V24H0z"/><path fill="#0067C3" fill-rule="evenodd" d="M0 0H32V24H0V0Z" clip-rule="evenodd"/><path fill="#272727" fill-rule="evenodd" d="M0 0V8H32V0H0Z" clip-rule="evenodd"/><path fill="#4E8B1D" fill-rule="evenodd" d="M0 16V24H32V16H0Z" clip-rule="evenodd"/><path fill="#E31D1C" stroke="#F7FCFF" stroke-width="2" d="M0 7H-1V8V16V17H0H32H33V16V8V7H32H0Z"/><ellipse cx="16" cy="12" fill="#AC2317" rx="4" ry="8"/><path fill="#fff" d="M19.6234 4.0305C19.8518 3.61977 20.4658 3.17125 21.4653 2.68495C21.4997 2.66824 21.5412 2.66728 21.5765 2.68238C21.6362 2.70795 21.661 2.77115 21.6316 2.82342L11.274 21.4516L10.7347 21.2209L19.8648 4.80028C19.4514 4.7412 19.3709 4.48461 19.6234 4.0305Z"/><path fill="#fff" d="M12.3655 4.0305C12.618 4.48461 12.5375 4.7412 12.1241 4.80028L21.2542 21.2209L20.7149 21.4516L10.3574 2.82342C10.3279 2.77115 10.3527 2.70795 10.4125 2.68238C10.4478 2.66728 10.4893 2.66824 10.5236 2.68495C11.5232 3.17125 12.1372 3.61977 12.3655 4.0305Z"/><path fill="#000" fill-rule="evenodd" d="M19.3846 16.2655C19.7744 15.0308 20 13.5681 20 12 20 10.4319 19.7744 8.96917 19.3846 7.73455 18.5076 8.96917 18 10.4319 18 12 18 13.5681 18.5076 15.0308 19.3846 16.2655zM12.6154 7.73455C12.2256 8.96917 12 10.4319 12 12 12 13.5681 12.2256 15.0308 12.6154 16.2655 13.4924 15.0308 14 13.5681 14 12 14 10.4319 13.4924 8.96917 12.6154 7.73455z" clip-rule="evenodd"/><path fill="#F7FCFF" fill-rule="evenodd" d="M16.2401 11.4C16.7878 11.0587 17.2001 9.57188 17.2001 7.78948C17.2001 6.00708 16.7878 4.52031 16.2401 4.17896V11.4ZM15.6401 11.305C15.1532 10.8355 14.8001 9.43913 14.8001 7.78948C14.8001 6.13984 15.1532 4.74342 15.6401 4.27394V11.305ZM15.6401 12.8002V19.8314C15.1532 19.362 14.8 17.9655 14.8 16.3158C14.8 14.6661 15.1532 13.2696 15.6401 12.8002ZM15.9985 20C15.999 20 15.9995 20 16 20C16.0006 20 16.0011 20 16.0016 20H15.9985ZM16.2401 19.9263V12.7053C16.7878 13.0467 17.2 14.5335 17.2 16.3158C17.2 18.0981 16.7878 19.5849 16.2401 19.9263Z" clip-rule="evenodd"/><path fill="#F7FCFF" d="M16 11.4737C16.6628 11.4737 17.2 11.945 17.2 12.5263C17.2 13.1077 16.6628 13.5789 16 13.5789C15.3373 13.5789 14.8 13.1077 14.8 12.5263C14.8 11.945 15.3373 11.4737 16 11.4737Z"/></g><defs><clipPath id="KE_svg__a"><path fill="#fff" d="M0 0H32V24H0z"/></clipPath></defs></svg>