<svg xmlns="http://www.w3.org/2000/svg" fill="none" viewBox="0 0 32 24"><g clip-path="url(#KR_svg__a)"><path fill="#fff" d="M0 0H32V24H0z"/><path fill="#F7FCFF" fill-rule="evenodd" d="M0 0V24H32V0H0Z" clip-rule="evenodd"/><mask id="KR_svg__b" width="32" height="24" x="0" y="0" maskUnits="userSpaceOnUse" style="mask-type:luminance"><path fill="#fff" fill-rule="evenodd" d="M0 0V24H32V0H0Z" clip-rule="evenodd"/></mask><g mask="url(#KR_svg__b)"><path fill="#3D58DB" fill-rule="evenodd" d="M16 18.2195C19.2027 18.2195 21.799 15.4622 21.799 12.061C21.799 8.65971 19.2027 5.90244 16 5.90244C12.7972 5.90244 10.2009 8.65971 10.2009 12.061C10.2009 15.4622 12.7972 18.2195 16 18.2195Z" clip-rule="evenodd"/><mask id="KR_svg__c" width="12" height="14" x="10" y="5" maskUnits="userSpaceOnUse" style="mask-type:luminance"><path fill="#fff" fill-rule="evenodd" d="M16 18.2195C19.2027 18.2195 21.799 15.4622 21.799 12.061C21.799 8.65971 19.2027 5.90244 16 5.90244C12.7972 5.90244 10.2009 8.65971 10.2009 12.061C10.2009 15.4622 12.7972 18.2195 16 18.2195Z" clip-rule="evenodd"/></mask><g mask="url(#KR_svg__c)"><path fill="#E31D1C" fill-rule="evenodd" d="M22.0019 12.5327C22.0019 12.5327 21.6764 9.62879 19.2657 9.47114C16.8551 9.3135 16.2051 11.6007 16.066 12.2067C15.9269 12.8127 15.5748 14.4292 13.0366 14.4292C10.4985 14.4292 10.2695 10.3187 10.2695 10.3187V5.47191H22.0019V12.5327Z" clip-rule="evenodd"/></g><path fill="#272727" fill-rule="evenodd" d="M7.29934 2.05217 8.2143 2.8797 3.97404 7.8316 3.05908 7.00408 7.29934 2.05217zM8.80833 3.39133 9.72329 4.21886 5.63503 9.09902 4.72007 8.2715 8.80833 3.39133zM11.2254 5.57451 10.3104 4.74699 6.21078 9.66419 7.12575 10.4917 11.2254 5.57451zM25.3637 1.70519 24.4485 2.52962 26.0359 4.39245 26.9511 3.56802 25.3637 1.70519zM28.1853 5.13183 27.2701 5.95626 28.8576 7.81909 29.7727 6.99466 28.1853 5.13183zM21.4279 5.21281 22.3431 4.38838 23.9305 6.25121 23.0153 7.07564 21.4279 5.21281zM25.1647 7.81501 24.2495 8.63944 25.837 10.5023 26.7521 9.67785 25.1647 7.81501zM22.9955 3.8312 23.9107 3.00677 28.3293 8.38763 27.4141 9.21206 22.9955 3.8312zM26.0549 14.2431 25.1321 13.4155 23.5313 15.2856 24.4541 16.1132 26.0549 14.2431zM23.3636 17.5341 22.4407 16.7065 20.84 18.5766 21.7628 19.4042 23.3636 17.5341zM28.0465 16.0328 28.9693 16.8605 27.3686 18.7306 26.4457 17.9029 28.0465 16.0328zM26.4096 20.2278 25.4868 19.4001 23.886 21.2702 24.8089 22.0979 26.4096 20.2278zM23.9665 17.978 24.8894 18.8057 23.2184 20.8026 22.2956 19.975 23.9665 17.978zM27.6308 15.4782 26.708 14.6506 25.037 16.6475 25.9599 17.4752 27.6308 15.4782zM6.40657 14.8899 7.32178 14.0645 11.4064 18.745 10.4912 19.5703 6.40657 14.8899zM7.35937 18.9835 8.27457 18.1582 9.99988 20.0538 9.08468 20.8791 7.35937 18.9835zM4.30943 16.6908 3.39423 17.5161 7.50003 22.2595 8.41523 21.4342 4.30943 16.6908zM4.96062 16.1522 5.87582 15.3269 7.37149 17.0807 6.45629 17.9061 4.96062 16.1522z" clip-rule="evenodd"/></g></g><defs><clipPath id="KR_svg__a"><path fill="#fff" d="M0 0H32V24H0z"/></clipPath></defs></svg>